<?xml version="1.0" standalone="no"?>
<!DOCTYPE svg PUBLIC "-//W3C//DTD SVG 20010904//EN"
 "http://www.w3.org/TR/2001/REC-SVG-20010904/DTD/svg10.dtd">
<svg version="1.0" xmlns="http://www.w3.org/2000/svg"
 width="512.000000pt" height="512.000000pt" viewBox="0 0 512.000000 512.000000"
 preserveAspectRatio="xMidYMid meet">
<metadata>
Created by potrace 1.11, written by Peter Selinger 2001-2013
</metadata>
<g transform="translate(0.000000,512.000000) scale(0.100000,-0.100000)"
fill="#000000" stroke="none">
<path d="M2260 4143 c0 -5 -8 -62 -17 -128 -8 -66 -18 -175 -20 -242 -3 -68
-9 -123 -14 -123 -5 0 -28 -12 -50 -26 -41 -26 -42 -26 -36 -74 l6 -49 -54
-30 c-105 -59 -224 -188 -296 -321 -99 -181 -143 -462 -120 -772 12 -169 27
-252 84 -454 41 -145 156 -357 257 -475 l48 -56 -52 -38 c-29 -21 -61 -54 -71
-74 -9 -20 -21 -43 -25 -51 -4 -8 -16 -16 -26 -18 -42 -7 -153 -54 -217 -92
l-69 -40 -32 25 c-18 13 -63 37 -102 52 -65 26 -79 28 -219 27 -143 0 -154 -1
-238 -31 -217 -78 -347 -193 -437 -387 -21 -44 -45 -113 -54 -153 -21 -93 -21
-230 0 -305 l17 -58 528 0 529 0 0 118 c0 64 -5 148 -10 186 -6 38 -8 71 -6
73 10 10 110 -54 135 -86 25 -33 26 -40 26 -163 l0 -128 1603 0 1602 0 0 429
0 428 -62 34 c-243 131 -475 161 -693 88 -95 -32 -209 -98 -277 -160 -35 -31
-67 -57 -72 -58 -6 -1 -15 15 -21 36 -17 56 -63 144 -92 174 -36 39 -151 88
-245 105 -82 15 -83 16 -103 56 -12 26 -34 49 -63 66 -54 31 -145 62 -183 62
-15 0 -40 5 -54 10 l-26 10 34 43 c54 65 94 151 135 287 24 78 33 223 22 370
-5 80 -10 189 -10 244 0 118 -27 412 -40 444 -6 13 -10 33 -10 46 0 76 -100
312 -178 420 -68 93 -197 174 -314 197 -60 12 -88 29 -88 54 0 16 -14 21 -73
30 -49 8 -53 12 -82 110 -29 95 -105 296 -127 334 -20 36 -48 55 -48 34z m58
-125 c11 -29 32 -84 47 -123 15 -38 38 -103 52 -144 l25 -74 -25 -25 c-30 -29
-119 -42 -156 -23 -26 15 -27 56 -6 255 24 213 29 225 63 134z m-223 -788 c22
-24 16 -91 -11 -121 -24 -27 -75 -34 -112 -15 -73 37 -39 110 68 149 27 10 37
7 55 -13z m-155 -237 c0 -36 -8 -47 -49 -67 -18 -10 -52 -35 -76 -57 l-42 -39
16 57 c21 74 74 133 119 133 28 0 32 -3 32 -27z m763 -23 c50 -56 31 -153 -41
-207 -154 -113 -323 36 -247 219 8 20 64 27 180 22 74 -3 82 -6 108 -34z
m-501 -40 c32 -34 38 -48 38 -84 0 -84 -75 -156 -162 -156 -94 0 -149 49 -150
133 -2 85 11 98 122 128 96 26 108 24 152 -21z m-318 -381 c41 -15 48 -31 67
-151 13 -88 7 -128 -20 -128 -22 0 -91 53 -108 83 -32 56 -74 263 -57 280 3 3
23 -12 44 -33 21 -21 54 -44 74 -51z"/>
<path d="M2540 2900 c-16 -30 -3 -62 23 -58 18 2 22 10 22 38 0 41 -27 53 -45
20z"/>
<path d="M2077 2873 c-14 -13 -7 -71 9 -77 22 -8 44 11 44 38 0 34 -34 59 -53
39z"/>
</g>
</svg>
